<?xml version="1.0" encoding="UTF-8" standalone="no"?>
<svg xmlns="http://www.w3.org/2000/svg" width="240" height="60" viewBox="0 0 240 60" fill="none">
  <!-- Tooth Icon -->
  <path d="M25 10C21.5 10 18.3333 13.3333 17 15C15.5 15 13.5 15.5 12.5 17.5C11.5 19.5 11 25 11.5 27.5C12 30 13 35 15 38.5C17 42 19.5 45.5 21.5 46.5C23.5 47.5 28 48 30 46.5C32 45 34.5 42 36.5 38.5C38.5 35 39.5 30 40 27.5C40.5 25 40 19.5 39 17.5C38 15.5 36 15 34.5 15C33.1667 13.3333 30 10 25 10Z" fill="#32CD32"/>
  <path d="M25 15C22.5 15 20 17.5 19 19C17.8333 19 16.5 19.5 16 21C15.5 22.5 15 26.5 15.5 28.5C16 30.5 16.5 34 18 36.5C19.5 39 21.5 41.5 23 42C24.5 42.5 27.5 43 29 42C30.5 41 33 39 34.5 36.5C36 34 36.5 30.5 37 28.5C37.5 26.5 37 22.5 36.5 21C36 19.5 34.5 19 33.5 19C32.5 17.5 30 15 25 15Z" fill="white"/>
  <!-- Dental Lines in the tooth -->
  <path d="M20 25C22 26 25 26.5 30 25" stroke="#32CD32" stroke-width="1.5" stroke-linecap="round"/>
  <path d="M20 30C22 31 25 31.5 30 30" stroke="#32CD32" stroke-width="1.5" stroke-linecap="round"/>
  <path d="M22 35C24 36 26 36.5 28 35" stroke="#32CD32" stroke-width="1.5" stroke-linecap="round"/>
  
  <!-- Text: Dental -->
  <path d="M55 20H60C63.3137 20 66 22.6863 66 26V26C66 29.3137 63.3137 32 60 32H55V20Z" fill="#32CD32"/>
  <path d="M55 22H59.5C62 22 64 23.5 64 26C64 28.5 62 30 59.5 30H55V22Z" fill="white"/>
  <text x="70" y="32" font-family="Arial" font-weight="bold" font-size="16" fill="#32CD32">ental</text>
  
  <!-- Text: Learn -->
  <text x="120" y="32" font-family="Arial" font-weight="bold" font-size="16" fill="#32CD32">Learn</text>
  
  <!-- Text: Hub -->
  <text x="170" y="32" font-family="Arial" font-weight="bold" font-size="16" fill="#10B981">Hub</text>
  
  <!-- Slogan -->
  <text x="55" y="45" font-family="Arial" font-size="8" fill="#666666">Advanced Education for Dental Professionals</text>
</svg>
